<svg xmlns="http://www.w3.org/2000/svg" viewBox="0 0 1920 307.2"><defs><style>.a{fill:#3363ad;}.b{fill:#fff;fill-rule:evenodd;}</style></defs><circle class="a" cx="1766.4" cy="153.6" r="153.6"/><path class="a" d="M52.76,519.37h-23V599H16.14V519.37H0V513.2l16.14-4.94v-5Q16.14,470,45.19,470A59.82,59.82,0,0,1,62,472.87l-3.54,10.94a45.57,45.57,0,0,0-13.5-2.55q-7.74,0-11.44,5.15t-3.7,16.5v5.85h23ZM82.88,599H69.22v-90.2H82.88ZM68.07,484.31q0-4.69,2.3-6.87a8.55,8.55,0,0,1,11.45,0c1.58,1.48,2.38,3.76,2.38,6.83s-.8,5.36-2.38,6.87a8,8,0,0,1-5.69,2.26,7.89,7.89,0,0,1-5.76-2.26Q68.08,488.92,68.07,484.31Z" transform="translate(0 -386.4)"/><path class="a" d="M173.58,599V540.61q0-11-5-16.46t-15.72-5.44q-14.16,0-20.74,7.66t-6.59,25.27V599H111.85v-90.2H123l2.22,12.34h.66a27.82,27.82,0,0,1,11.78-10.33,38.23,38.23,0,0,1,16.87-3.66q16.29,0,24.52,7.86t8.24,25.15V599Z" transform="translate(0 -386.4)"/><path class="a" d="M270.79,599l-2.72-12.84h-.66Q260.66,594.6,254,597.6t-16.75,3q-13.41,0-21-6.92T208.57,574q0-27.32,43.69-28.64l15.32-.5v-5.59q0-10.62-4.57-15.68t-14.61-5.06q-11.28,0-25.52,6.91L218.69,515a64.15,64.15,0,0,1,14.61-5.68,63.28,63.28,0,0,1,15.92-2.05q16.14,0,23.91,7.15t7.78,23V599Zm-30.87-9.63q12.75,0,20-7t7.29-19.58V554.6l-13.66.58q-16.31.57-23.5,5.06c-4.8,3-7.21,7.64-7.21,13.94q0,7.41,4.49,11.29t12.55,3.86Z" transform="translate(0 -386.4)"/><path class="a" d="M370.79,599V540.61q0-11-5-16.46t-15.72-5.44q-14.16,0-20.75,7.66t-6.58,25.27V599H309.06v-90.2h11.11l2.22,12.34h.66a27.85,27.85,0,0,1,11.77-10.33,38.26,38.26,0,0,1,16.87-3.66q16.31,0,24.53,7.86t8.23,25.15V599Z" transform="translate(0 -386.4)"/><path class="a" d="M470.21,599H404.78v-9.3L454,519.37H407.82V508.76H469v10.61l-48.56,69h49.79V599Z" transform="translate(0 -386.4)"/><path class="a" d="M511.12,599l-34.24-90.2h14.65L511,562.25q6.59,18.76,7.74,24.37h.65q.92-4.36,5.73-18.07t21.6-59.79h14.65L527.09,599Z" transform="translate(0 -386.4)"/><path class="a" d="M613.92,600.61q-20,0-31.57-12.19T570.79,554.6q0-21.83,10.74-34.65t28.85-12.84q16.95,0,26.83,11.15t9.88,29.43v8.64H585q.4,15.88,8,24.11t21.44,8.24a72.89,72.89,0,0,0,28.81-6.09v12.18a73,73,0,0,1-13.71,4.48,76.55,76.55,0,0,1-15.59,1.36Zm-3.71-82.06q-10.86,0-17.32,7.07t-7.61,19.59h47.15q0-12.91-5.76-19.79t-16.46-6.87Z" transform="translate(0 -386.4)"/><path class="a" d="M711.53,507.11a53.27,53.27,0,0,1,10.78,1l-1.89,12.67a46.74,46.74,0,0,0-9.87-1.24q-10.95,0-18.73,8.9T684,550.57V599H670.38v-90.2h11.27l1.57,16.7h.65A39.58,39.58,0,0,1,696,511.88a27.22,27.22,0,0,1,15.55-4.77Z" transform="translate(0 -386.4)"/><path class="a" d="M813,508.76v8.64l-16.7,2a28.89,28.89,0,0,1,4.11,7.54,28.6,28.6,0,0,1,1.81,10.49q0,13.25-9.05,21.15t-24.86,7.9a41.27,41.27,0,0,1-7.57-.66Q752,570.4,752,577.39a5.89,5.89,0,0,0,3,5.48q3,1.77,10.46,1.77h16q14.65,0,22.51,6.17t7.86,18q0,15-12,22.83t-35.07,7.87q-17.68,0-27.28-6.59t-9.59-18.6A20.91,20.91,0,0,1,733.18,600q5.27-6,14.81-8.14a14.34,14.34,0,0,1-5.8-4.87,12.84,12.84,0,0,1-2.34-7.64,14.51,14.51,0,0,1,2.63-8.65,27.6,27.6,0,0,1,8.31-7.16,24.39,24.39,0,0,1-11.4-9.79A28.87,28.87,0,0,1,735,538q0-14.81,8.89-22.84t25.18-8a45.68,45.68,0,0,1,12.76,1.65ZM741.08,614.1a12.26,12.26,0,0,0,6.17,11.12Q753.43,629,765,629q17.2,0,25.47-5.14t8.28-14c0-4.88-1.52-8.27-4.53-10.17s-8.7-2.84-17-2.84H760.75q-9.3,0-14.48,4.45C742.81,604.31,741.08,608.57,741.08,614.1Zm7.41-76.46c0,6.32,1.78,11.08,5.35,14.33s8.53,4.85,14.9,4.85q20,0,20-19.42,0-20.34-20.26-20.33-9.62,0-14.81,5.18t-5.18,15.39Z" transform="translate(0 -386.4)"/><rect class="a" x="831.54" y="84.5" width="13.66" height="128.06"/><path class="a" d="M912.28,600.61q-20,0-31.57-12.19T869.15,554.6q0-21.83,10.74-34.65t28.85-12.84q16.95,0,26.83,11.15t9.88,29.43v8.64H883.3q.42,15.88,8,24.11t21.44,8.24a72.89,72.89,0,0,0,28.81-6.09v12.18a73.22,73.22,0,0,1-13.71,4.48,76.55,76.55,0,0,1-15.59,1.36Zm-3.71-82.06q-10.87,0-17.32,7.07t-7.62,19.59h47.16q0-12.91-5.76-19.79t-16.46-6.87Z" transform="translate(0 -386.4)"/><path class="a" d="M982.4,599H968.74v-90.2H982.4ZM967.59,484.31q0-4.69,2.3-6.87a8.54,8.54,0,0,1,11.44,0q2.38,2.22,2.39,6.83t-2.39,6.87a8.37,8.37,0,0,1-11.44,0Q967.6,488.92,967.59,484.31Z" transform="translate(0 -386.4)"/><path class="a" d="M1047.42,600.61q-19.59,0-30.33-12.06t-10.74-34.12q0-22.62,10.9-35t31.08-12.35a62.45,62.45,0,0,1,13,1.39,43.51,43.51,0,0,1,10.21,3.3l-4.2,11.6a65.55,65.55,0,0,0-9.88-3,43.73,43.73,0,0,0-9.46-1.19q-27.49,0-27.5,35.06,0,16.62,6.72,25.51t19.87,8.9a60.56,60.56,0,0,0,23.13-4.87v12.11q-9,4.68-22.8,4.69Z" transform="translate(0 -386.4)"/><path class="a" d="M1153.35,599V540.61q0-11-5-16.46t-15.72-5.44q-14.23,0-20.78,7.74t-6.55,25.35V599h-13.66V470.9h13.66v38.76a84.1,84.1,0,0,1-.66,11.6h.82A27.84,27.84,0,0,1,1116.93,511a37.25,37.25,0,0,1,17-3.74q16.55,0,24.82,7.85t8.27,25V599Z" transform="translate(0 -386.4)"/><path class="a" d="M1193.1,590.23q0-5.51,2.51-8.35t7.2-2.83a9.73,9.73,0,0,1,7.45,2.83c1.78,1.9,2.68,4.68,2.68,8.35s-.91,6.32-2.72,8.24a10.78,10.78,0,0,1-14.36.28c-1.84-1.73-2.76-4.56-2.76-8.52Z" transform="translate(0 -386.4)"/><path class="a" d="M1276,600.61q-19.6,0-30.34-12.06t-10.74-34.12q0-22.62,10.91-35t31.07-12.35a62.45,62.45,0,0,1,13,1.39,43.2,43.2,0,0,1,10.21,3.3l-4.2,11.6a65.55,65.55,0,0,0-9.88-3,43.73,43.73,0,0,0-9.46-1.19q-27.49,0-27.49,35.06,0,16.62,6.71,25.51t19.88,8.9a60.55,60.55,0,0,0,23.12-4.87v12.11q-9.06,4.68-22.79,4.69Z" transform="translate(0 -386.4)"/><path class="a" d="M1398,553.78q0,22.05-11.11,34.44t-30.7,12.39a40.69,40.69,0,0,1-21.48-5.68,37.47,37.47,0,0,1-14.49-16.3q-5.1-10.62-5.1-24.85,0-22.06,11-34.37t30.62-12.3q18.93,0,30.08,12.59T1398,553.78Zm-68.72,0q0,17.28,6.91,26.33t20.33,9.06q13.41,0,20.37-9t7-26.37q0-17.22-7-26.14t-20.53-8.93q-13.43,0-20.25,8.81T1329.32,553.78Z" transform="translate(0 -386.4)"/><path class="a" d="M1537,599V540.28q0-10.78-4.61-16.18T1518,518.71q-12.75,0-18.84,7.33t-6.09,22.55V599h-13.67V540.28q0-10.78-4.6-16.18t-14.41-5.39q-12.84,0-18.81,7.7t-6,25.23V599H1422v-90.2h11.11l2.23,12.34h.65a26.89,26.89,0,0,1,10.91-10.29,33.3,33.3,0,0,1,15.77-3.7q21.15,0,27.64,15.31h.66a28.78,28.78,0,0,1,11.69-11.2,36.3,36.3,0,0,1,17.45-4.11q15.32,0,22.93,7.86t7.61,25.15V599Z" transform="translate(0 -386.4)"/><path class="b" d="M1768.85,541.68h-4a13.43,13.43,0,0,1-13.42-13.43v-56.9a13.43,13.43,0,0,1,13.42-13.43h99.77a13.43,13.43,0,0,1,13.42,13.43v56.9a13.43,13.43,0,0,1-13.42,13.43h-67.73l-28.36,24.16Zm61.29-33.11a10.57,10.57,0,0,1-3.27,8.08,15.71,15.71,0,0,1-8.68,3.87v8.16h-6.81v-8a25.08,25.08,0,0,1-13.05-4.7l4-6.13a21,21,0,0,0,11.29,3.65,11.64,11.64,0,0,0,5.56-1.11,3.6,3.6,0,0,0,2-3.35,3.77,3.77,0,0,0-.65-2.25,6.21,6.21,0,0,0-2.3-1.73c-1.09-.56-2.73-1.28-4.93-2.14l-1.43-.56a44.83,44.83,0,0,1-6.39-3,11.15,11.15,0,0,1-3.85-3.65,10.25,10.25,0,0,1-1.43-5.63,9.48,9.48,0,0,1,1.52-5.41,10.84,10.84,0,0,1,4-3.59,18.44,18.44,0,0,1,5.63-1.83v-8.17h6.81v8.05a25.49,25.49,0,0,1,11.14,4.33l-4,6.06a28.88,28.88,0,0,0-5.24-2.59,14.71,14.71,0,0,0-4.94-.81,8.18,8.18,0,0,0-4.47,1,3.11,3.11,0,0,0-.89,4.55,6.24,6.24,0,0,0,2.22,1.67,40.39,40.39,0,0,0,4.62,1.95l1.36.49a57.1,57.1,0,0,1,6.39,2.79,11.51,11.51,0,0,1,4.1,3.71,10.8,10.8,0,0,1,1.67,6.25Z" transform="translate(0 -386.4)"/><path class="b" d="M1738.33,483.87v19.85H1691.9v88.74l50.35.1,2.76,5.13,32.73.45,1.2-5.5,49.79.09V554.47h18.69v38.3l13.17,0c.77,0,3.83,24.1-12.2,24.21-3.6,0-11.13.54-15.07.56-1.19.33,1.29,0,0,0h-148c-1.2,0,1.12.28,0,0-2.55,0-8.59-.41-11.13-.39-20.78.15-14.46-24.78-13.39-24.78l10.42,0V498a14.12,14.12,0,0,1,14.1-14.11Z" transform="translate(0 -386.4)"/></svg>